<?xml version="1.0" encoding="utf-8"?>
<!-- Trash Can icon by Arthur Shlain from Usefulicons.com -->
<svg xmlns="http://www.w3.org/2000/svg" xmlns:xlink="http://www.w3.org/1999/xlink" xml:space="preserve" version="1.1" x="0px" y="0px" viewBox="0 0 100 100" width="400px" height="400px"><path d="M80,20L60,20L60,15C60,12.239,57.761,10,55,10L45,10C42.239,10,40,12.239,40,15L40,20L20,20C17.239,20,15,22.239,15,25L15,30L85,30L85,25C85,22.239,82.761,20,80,20ZM45,20L45,15L55,15L55,20L45,20Z" stroke="none"></path><path d="M20,90L80,90L80,35L20,35L20,90ZM65,40L70,40L70,85L65,85L65,40ZM47.5,40L52.5,40L52.5,85L47.5,85L47.5,40ZM30,40L35,40L35,85L30,85L30,40Z" stroke="none"></path></svg>